<svg width="80" height="80" viewBox="0 0 80 80" fill="none" xmlns="http://www.w3.org/2000/svg">
<path d="M40 80C62.0914 80 80 62.0914 80 40C80 17.9086 62.0914 0 40 0C17.9086 0 0 17.9086 0 40C0 62.0914 17.9086 80 40 80Z" fill="#2F363E"/>
<path d="M39.9999 74.1663C58.8696 74.1663 74.1666 58.8694 74.1666 39.9997C74.1666 21.1299 58.8696 5.83301 39.9999 5.83301C21.1302 5.83301 5.83325 21.1299 5.83325 39.9997C5.83325 58.8694 21.1302 74.1663 39.9999 74.1663Z" fill="#2F363E"/>
<path d="M57.491 23.7549H22.509C20.5477 23.7549 18.958 25.3449 18.958 27.3059V60.2005C18.958 60.8332 19.723 61.1502 20.1703 60.7025L27.8283 53.0449H57.491C59.4523 53.0449 61.042 51.4549 61.042 49.4939V27.3059C61.042 25.3449 59.452 23.7549 57.491 23.7549Z" fill="#2F363E"/>
<path d="M57.491 23.5889H22.509C20.5477 23.5889 18.958 25.1789 18.958 27.1402V57.8662C18.958 58.4989 19.723 58.8159 20.1703 58.3685L27.8283 50.7105H57.491C59.452 50.7105 61.042 49.1205 61.042 47.1595V27.1399C61.042 25.1785 59.452 23.5889 57.491 23.5889Z" fill="white"/>
<path d="M57.491 21.4219H22.509C20.5477 21.4219 18.958 23.0119 18.958 24.9729V54.9885C18.958 55.6212 19.723 55.9382 20.1703 55.4909L27.118 48.5432H57.491C59.452 48.5432 61.042 46.9532 61.042 44.9922V24.9729C61.042 23.0119 59.452 21.4219 57.491 21.4219Z" fill="#FDFDFD"/>
<path d="M30.0849 27.0439C28.7586 27.0439 27.6832 28.1193 27.6832 29.4456V36.4613C27.6832 36.6686 27.7096 36.8696 27.7589 37.0616C27.7689 37.0999 27.7796 37.1379 27.7912 37.1756C27.8029 37.2133 27.8156 37.2506 27.8289 37.2873C28.1386 38.1333 28.9109 38.7566 29.8392 38.8509C29.8596 38.8529 29.8796 38.8549 29.8999 38.8563C29.9406 38.8593 29.9816 38.8613 30.0226 38.8626C30.0432 38.8629 30.0639 38.8633 30.0846 38.8633C31.4109 38.8633 32.4862 37.7879 32.4862 36.4616V29.4456C32.4866 28.1193 31.4112 27.0439 30.0849 27.0439Z" fill="white"/>
<path d="M30.0849 40.3799C28.7752 40.3799 27.7106 41.4282 27.6839 42.7316C27.6836 42.7482 27.6832 42.7649 27.6832 42.7819C27.6832 42.9892 27.7096 43.1902 27.7589 43.3822C27.7689 43.4206 27.7796 43.4585 27.7912 43.4962C27.8029 43.5339 27.8156 43.5709 27.8289 43.6079C28.1386 44.4539 28.9109 45.0772 29.8392 45.1715C29.8596 45.1735 29.8796 45.1756 29.8999 45.1769C29.9406 45.1799 29.9816 45.1822 30.0226 45.1832C30.0432 45.1836 30.0639 45.1839 30.0846 45.1839C31.4109 45.1839 32.4862 44.1085 32.4862 42.7822C32.4862 42.7655 32.4859 42.7489 32.4856 42.7319C32.4592 41.4282 31.3946 40.3799 30.0849 40.3799Z" fill="white"/>
<path d="M39.9999 27.0439C38.6736 27.0439 37.5983 28.1193 37.5983 29.4456V36.4613C37.5983 36.6686 37.6246 36.8696 37.6739 37.0616C37.6839 37.0999 37.6946 37.1379 37.7063 37.1756C37.7179 37.2133 37.7306 37.2506 37.7439 37.2873C38.0536 38.1333 38.8259 38.7566 39.7543 38.8509C39.7746 38.8529 39.7946 38.8549 39.8149 38.8563C39.8556 38.8593 39.8966 38.8613 39.9376 38.8626C39.9583 38.8629 39.9789 38.8633 39.9996 38.8633C41.3259 38.8633 42.4013 37.7879 42.4013 36.4616V29.4456C42.4016 28.1193 41.3263 27.0439 39.9999 27.0439Z" fill="white"/>
<path d="M39.9999 40.3799C38.6903 40.3799 37.6256 41.4282 37.5989 42.7316C37.5986 42.7482 37.5983 42.7649 37.5983 42.7819C37.5983 42.9892 37.6246 43.1902 37.6739 43.3822C37.6839 43.4206 37.6946 43.4585 37.7063 43.4962C37.7179 43.5339 37.7306 43.5709 37.7439 43.6079C38.0536 44.4539 38.8259 45.0772 39.7543 45.1715C39.7746 45.1735 39.7946 45.1756 39.8149 45.1769C39.8556 45.1799 39.8966 45.1822 39.9376 45.1832C39.9583 45.1836 39.9789 45.1839 39.9996 45.1839C41.3259 45.1839 42.4013 44.1085 42.4013 42.7822C42.4013 42.7655 42.4009 42.7489 42.4006 42.7319C42.3743 41.4282 41.3096 40.3799 39.9999 40.3799Z" fill="white"/>
<path d="M49.915 27.0439C48.5886 27.0439 47.5133 28.1193 47.5133 29.4456V36.4613C47.5133 36.6686 47.5396 36.8696 47.589 37.0616C47.599 37.0999 47.6096 37.1379 47.6213 37.1756C47.633 37.2133 47.6456 37.2506 47.659 37.2873C47.9486 38.0783 48.6423 38.6743 49.49 38.8256C49.5096 38.8289 49.5296 38.8323 49.5493 38.8353C49.589 38.8413 49.6293 38.8466 49.6696 38.8506C49.69 38.8526 49.71 38.8546 49.7303 38.8559C49.771 38.8589 49.812 38.8609 49.853 38.8623C49.8736 38.8626 49.8943 38.8629 49.915 38.8629C51.2413 38.8629 52.3166 37.7876 52.3166 36.4613V29.4456C52.317 28.1193 51.2416 27.0439 49.915 27.0439Z" fill="white"/>
<path d="M49.915 40.3799C48.6053 40.3799 47.5406 41.4282 47.514 42.7316C47.5136 42.7482 47.5133 42.7649 47.5133 42.7819C47.5133 42.9892 47.5396 43.1902 47.589 43.3822C47.599 43.4206 47.6096 43.4585 47.6213 43.4962C47.633 43.5339 47.6456 43.5709 47.659 43.6079C47.9486 44.3989 48.6423 44.9949 49.49 45.1462C49.5096 45.1499 49.5296 45.1532 49.5493 45.1562C49.589 45.1622 49.6293 45.1672 49.6696 45.1715C49.69 45.1735 49.71 45.1756 49.7303 45.1769C49.771 45.1799 49.812 45.1822 49.853 45.1832C49.8736 45.1836 49.8943 45.1839 49.915 45.1839C51.2413 45.1839 52.3166 44.1085 52.3166 42.7822C52.3166 42.7655 52.3163 42.7489 52.316 42.7319C52.2896 41.4282 51.2246 40.3799 49.915 40.3799Z" fill="white"/>
<path d="M30.085 37.7409C31.4113 37.7409 32.4867 36.6655 32.4867 35.3392V28.3235C32.4867 26.9972 31.4113 25.9219 30.085 25.9219C28.7587 25.9219 27.6833 26.9972 27.6833 28.3235V35.3392C27.683 36.6655 28.7583 37.7409 30.085 37.7409Z" fill="#2F363E"/>
<path d="M30.085 36.2239C31.4113 36.2239 32.4867 35.1486 32.4867 33.8223V35.3393C32.4867 36.6656 31.4113 37.7409 30.085 37.7409C28.7583 37.7409 27.6833 36.6656 27.6833 35.3393V33.8223C27.683 35.1486 28.7583 36.2239 30.085 36.2239Z" fill="#2F363E"/>
<path d="M30.085 44.0611C31.4113 44.0611 32.4867 42.9858 32.4867 41.6595C32.4867 40.3331 31.4113 39.2578 30.085 39.2578C28.7587 39.2578 27.6833 40.3331 27.6833 41.6595C27.683 42.9858 28.7583 44.0611 30.085 44.0611Z" fill="#2F363E"/>
<path d="M30.085 42.5437C31.1447 42.5437 32.034 41.8527 32.3527 40.9004C32.433 41.1401 32.4867 41.3921 32.4867 41.6587C32.4867 42.9851 31.4113 44.0604 30.085 44.0604C28.7583 44.0604 27.6833 42.9851 27.6833 41.6587C27.6833 41.3921 27.737 41.1401 27.8173 40.9004C28.136 41.8531 29.025 42.5437 30.085 42.5437Z" fill="#2F363E"/>
<path d="M40.0001 37.7409C41.3264 37.7409 42.4017 36.6655 42.4017 35.3392V28.3235C42.4017 26.9972 41.3264 25.9219 40.0001 25.9219C38.6737 25.9219 37.5984 26.9972 37.5984 28.3235V35.3392C37.5984 36.6655 38.6737 37.7409 40.0001 37.7409Z" fill="#2F363E"/>
<path d="M40.0001 36.2239C41.3264 36.2239 42.4017 35.1486 42.4017 33.8223V35.3393C42.4017 36.6656 41.3264 37.7409 40.0001 37.7409C38.6734 37.7409 37.5984 36.6656 37.5984 35.3393V33.8223C37.5984 35.1486 38.6734 36.2239 40.0001 36.2239Z" fill="#2F363E"/>
<path d="M40.0001 44.0611C41.3264 44.0611 42.4017 42.9858 42.4017 41.6595C42.4017 40.3331 41.3264 39.2578 40.0001 39.2578C38.6737 39.2578 37.5984 40.3331 37.5984 41.6595C37.5984 42.9858 38.6737 44.0611 40.0001 44.0611Z" fill="#2F363E"/>
<path d="M40.0001 42.5437C41.0597 42.5437 41.9491 41.8527 42.2677 40.9004C42.3481 41.1401 42.4017 41.3921 42.4017 41.6587C42.4017 42.9851 41.3264 44.0604 40.0001 44.0604C38.6734 44.0604 37.5984 42.9851 37.5984 41.6587C37.5984 41.3921 37.6521 41.1401 37.7324 40.9004C38.0511 41.8531 38.9404 42.5437 40.0001 42.5437Z" fill="#2F363E"/>
<path d="M49.9151 37.7409C51.2414 37.7409 52.3168 36.6655 52.3168 35.3392V28.3235C52.3168 26.9972 51.2414 25.9219 49.9151 25.9219C48.5888 25.9219 47.5134 26.9972 47.5134 28.3235V35.3392C47.5134 36.6655 48.5888 37.7409 49.9151 37.7409Z" fill="#2F363E"/>
<path d="M49.9151 36.2239C51.2414 36.2239 52.3168 35.1486 52.3168 33.8223V35.3393C52.3168 36.6656 51.2414 37.7409 49.9151 37.7409C48.5884 37.7409 47.5134 36.6656 47.5134 35.3393V33.8223C47.5134 35.1486 48.5888 36.2239 49.9151 36.2239Z" fill="#2F363E"/>
<path d="M49.9151 44.0611C51.2414 44.0611 52.3168 42.9858 52.3168 41.6595C52.3168 40.3331 51.2414 39.2578 49.9151 39.2578C48.5888 39.2578 47.5134 40.3331 47.5134 41.6595C47.5134 42.9858 48.5888 44.0611 49.9151 44.0611Z" fill="#2F363E"/>
<path d="M49.9151 42.5437C50.9748 42.5437 51.8641 41.8527 52.1828 40.9004C52.2631 41.1401 52.3168 41.3921 52.3168 41.6587C52.3168 42.9851 51.2414 44.0604 49.9151 44.0604C48.5884 44.0604 47.5134 42.9851 47.5134 41.6587C47.5134 41.3921 47.5671 41.1401 47.6474 40.9004C47.9664 41.8531 48.8554 42.5437 49.9151 42.5437Z" fill="#2F363E"/>
</svg>
