<svg width="40" height="40" viewBox="0 0 40 40" fill="none" xmlns="http://www.w3.org/2000/svg">
<path d="M38.9286 12.5H1.07143C0.479732 12.5 0 12.0802 0 11.5625V8.75C0 6.67891 1.91875 5 4.28571 5H8.57143V0.9375C8.57143 0.419766 9.05116 0 9.64286 0H13.2143C13.806 0 14.2857 0.419766 14.2857 0.9375V5H25.7143V0.9375C25.7143 0.419766 26.194 0 26.7857 0H30.3571C30.9488 0 31.4286 0.419766 31.4286 0.9375V5H35.7143C38.0812 5 40 6.67891 40 8.75V11.5625C40 12.0802 39.5203 12.5 38.9286 12.5ZM1.07143 15H38.9286C39.5203 15 40 15.4198 40 15.9375V36.25C40 38.3211 38.0812 40 35.7143 40H4.28571C1.91875 40 0 38.3211 0 36.25V15.9375C0 15.4198 0.479732 15 1.07143 15ZM30.83 22.4959L28.3149 20.2773C27.8982 19.9097 27.2198 19.9073 26.7997 20.272L17.3321 28.4895L13.2268 24.8682C12.8101 24.5006 12.1316 24.4982 11.7115 24.8629L9.17607 27.0637C8.75598 27.4283 8.75321 28.0219 9.17 28.3895L16.5451 34.8948C16.9618 35.2624 17.6402 35.2648 18.0603 34.9002L30.8239 23.8216C31.244 23.457 31.2468 22.8634 30.83 22.4959Z" fill="white"/>
</svg>
